<svg xmlns="http://www.w3.org/2000/svg" xmlns:xlink="http://www.w3.org/1999/xlink" id="b82ffadf-cd82-44b9-9c6d-e262570a0ac0" x="0" y="0" enable-background="new 0 0 463.7 360.6" version="1.1" viewBox="0 0 463.7 360.6" xml:space="preserve"><style type="text/css">.st0{fill:#f2f2f2}.st1{fill:none;stroke:#3f3d56;stroke-width:2;stroke-miterlimit:10}.st2{fill:#8d99ae}.st3{fill:#fff}.st4{fill:#b9314f}.st5{fill:#f5f5f5;stroke:#c8cbce;stroke-miterlimit:10}.st6{fill:#a8163d}.st7,.st8,.st9{opacity:.15;enable-background:new}.st8,.st9{opacity:.1;fill:#a8163d}.st9{opacity:7.000000e-02}.st10{fill:none}</style><title>blooming</title><ellipse cx="211" cy="268" class="st0" rx="211" ry="93"/><ellipse cx="248.4" cy="249" class="st1" rx="215.4" ry="93"/><circle cx="124.8" cy="139.5" r="79" class="st2"/><rect width="24" height="43" x="88.8" y="201.5" class="st2"/><rect width="24" height="43" x="136.8" y="201.5" class="st2"/><ellipse cx="108.8" cy="245" class="st2" rx="20" ry="7.5"/><ellipse cx="156.8" cy="244" class="st2" rx="20" ry="7.5"/><circle cx="126.8" cy="119.5" r="27" class="st3"/><circle cx="126.8" cy="119.5" r="9" class="st2"/><path d="M48.2,66c-6.4-28.6,14-57.4,45.5-64.5s62.3,10.4,68.6,39s-14.5,39.1-46.1,46.1S54.6,94.6,48.2,66z" class="st4"/><ellipse cx="194" cy="112.3" class="st2" rx="39.5" ry="12.4" transform="matrix(0.9193 -0.3935 0.3935 0.9193 -28.5551 85.4053)"/><ellipse cx="46" cy="165.3" class="st2" rx="39.5" ry="12.4" transform="matrix(0.9193 -0.3935 0.3935 0.9193 -61.3481 31.4457)"/><path d="M170.8,162.5c0,7.7-19.9,23-42,23s-43-14.3-43-22s20.9-6,43-6S170.8,154.8,170.8,162.5z" class="st3"/><circle cx="343" cy="173.3" r="79" class="st2"/><rect width="24" height="43" x="369.4" y="229.7" class="st2" transform="matrix(0.984 -0.1781 0.1781 0.984 -38.6348 71.9518)"/><rect width="24" height="43" x="322.2" y="238.2" class="st2" transform="matrix(0.984 -0.1781 0.1781 0.984 -40.9033 63.6814)"/><ellipse cx="333.9" cy="286.2" class="st2" rx="20" ry="7.5" transform="matrix(0.7631 -0.6463 0.6463 0.7631 -105.8429 283.6214)"/><ellipse cx="380.2" cy="277.8" class="st2" rx="20" ry="7.5" transform="matrix(0.7631 -0.6463 0.6463 0.7631 -89.4523 311.5609)"/><circle cx="337.4" cy="153.9" r="27" class="st3"/><circle cx="326.3" cy="144.3" r="9" class="st2"/><ellipse cx="270" cy="158.8" class="st2" rx="12.4" ry="39.5" transform="matrix(0.2234 -0.9747 0.9747 0.2234 54.8507 386.5337)"/><ellipse cx="425.1" cy="184.7" class="st2" rx="12.4" ry="39.5" transform="matrix(0.2234 -0.9747 0.9747 0.2234 150.1374 557.8211)"/><path d="M364.6,204.4c1.8,9.8-4.7,19.1-14.5,20.9c-9.8,1.8-19.1-4.7-20.9-14.5s5.8-13.2,15.6-15	C354.6,194,362.9,194.6,364.6,204.4z" class="st3"/><rect width="5.2" height="17.5" x="226.4" y="116.4" class="st4" transform="matrix(0.5952 -0.8036 0.8036 0.5952 -7.8828 234.6576)"/><rect width="5.2" height="17.5" x="224.7" y="119.5" class="st4" transform="matrix(0.1752 -0.9845 0.9845 0.1752 61.2156 329.6028)"/><path d="M208,187.7c0.9-2.2,49.1-113.5,48.4-111.9c9.5,5.5,16,6.9,16,6.9l-48.3,111.9	C224.1,194.6,217.1,191.1,208,187.7z" class="st5"/><rect width="9.2" height="17.5" x="236.7" y="124" class="st4" transform="matrix(0.3966 -0.918 0.918 0.3966 23.7522 301.6534)"/><rect width="5.2" height="17.5" x="238.8" y="123.9" class="st4" transform="matrix(0.3966 -0.918 0.918 0.3966 23.9512 301.6408)"/><path d="M449.9,122.4l-0.6-21.3l1.5-6.8c1.8,0.2,3.6-1,4.1-2.7c0.4-1.3-0.1-2.6-1.1-3.6l3-10h-0.1l0,0l-7.7-2.3	l-74.6-44.8l-91.6-1.4l-1.2,4.2L317.5,61L303,100.9c19.7,12.5,35.9,19.8,49.3,23.7l0.3,0.1l0.4,0.1c39.3,11.1,52.7-7.5,52.7-7.5	c1.2-11.6,5.1-23.8,7.3-29.8l40-5.3l0.4-3.2l0.5,0.2l-2.3,7.8c-2-0.3-3.9,1.2-4.2,3.2c-0.1,1.2,0.3,2.4,1.2,3.2l-0.6,3.4	c0.2,0.4-0.9,1.7-3,3.1" class="st6"/><path d="M447.7,123.2h0.6" class="st6"/><path d="M406,114.5c0,0-22.3,33.6-100.5-11.8l12.6-39.8l67.4,7.2l27.7,11.4C413.2,81.4,407,98.5,406,114.5z" class="st4"/><polygon points="318.1 62.9 317.3 66.4 361.6 95.7 408.9 88.4 410.4 85.1 363 89.9" class="st7"/><path d="M413.3,81.4L385.6,70l-1-0.1l26.7,11c0,0-6.2,17.1-7.2,33.1c0,0-12.5,18.8-51.6,9.3	c40.6,10.7,53.5-8.8,53.5-8.8C407,98.6,413.3,81.4,413.3,81.4z" class="st7"/><rect width="10.9" height="2.4" x="446.3" y="81.8" class="st6" transform="matrix(0.2858 -0.9583 0.9583 0.2858 243.0824 492.1463)"/><path d="M445.4,118.7c0,0,7.2,6.2,12.1,1.4l-6.3-21.4l-3.6-1.9L445.4,118.7z" class="st6"/><path d="M445.8,119.6c0,0,7.4,6,12.1,1l-7-21.4l-3.7-1.7L445.8,119.6z" class="st8"/><polygon points="284.9 30.7 283.7 34.8 361.3 93.9 450.6 82 451.1 78.4 362 89.7" class="st6"/><polygon points="284.9 30.7 283.7 34.8 361.3 93.9 450.6 82 451.1 78.4 362 89.7" class="st9"/><polygon points="284.9 30.7 362.1 90.6 451.1 78.4 374.1 32.1" class="st4"/><ellipse cx="368.8" cy="52.3" class="st4" rx="3.9" ry="6" transform="matrix(0.2464 -0.9692 0.9692 0.2464 227.248 396.8211)"/><rect width="1.8" height="84" x="412.9" y="24.9" class="st4" transform="matrix(0.2858 -0.9583 0.9583 0.2858 231.4588 444.323)"/><circle cx="448.8" cy="90.4" r="3.6" class="st6"/><circle cx="450.3" cy="89.8" r="3.6" class="st8"/><path d="M446,98.3c0,0,1.1,2,5.4,1v-7.9l-1.8-0.1L446,98.3z" class="st6"/><path d="M447.5,99c0,0-0.1,1.5,3.9-0.4l-0.2-7.5l-1.8,0.3L447.5,99z" class="st8"/><line x1="446.3" x2="444.8" y1="122.1" y2="118.5" class="st10"/><path d="M322.2,86.3c0,0,16.1,10.3,27.5,9.5L322.2,86.3z" class="st7"/><path d="M368.9,102.6c0,0,18.2,5.9,29,2.1L368.9,102.6z" class="st7"/><path d="M378.1,119.7c0,0,11.8-1.3,18.3-4.1L378.1,119.7z" class="st7"/><path d="M315.2,93.9c0,0,16.8,12.4,22.2,10.6L315.2,93.9z" class="st7"/></svg>