<?xml version="1.0" encoding="utf-8"?>
<!-- Generator: Adobe Illustrator 22.1.0, SVG Export Plug-In . SVG Version: 6.00 Build 0)  -->
<svg version="1.1" id="b82ffadf-cd82-44b9-9c6d-e262570a0ac0"
	 xmlns="http://www.w3.org/2000/svg" xmlns:xlink="http://www.w3.org/1999/xlink" x="0px" y="0px" viewBox="0 0 463.7 360.6"
	 style="enable-background:new 0 0 463.7 360.6;" xml:space="preserve">
<style type="text/css">
	.st0{fill:#F2F2F2;}
	.st1{fill:none;stroke:#3F3D56;stroke-width:2;stroke-miterlimit:10;}
	.st2{fill:#8D99AE;}
	.st3{fill:#FFFFFF;}
	.st4{fill:#B9314F;}
	.st5{fill:#F5F5F5;stroke:#C8CBCE;stroke-miterlimit:10;}
	.st6{fill:#A8163D;}
	.st7{opacity:0.15;enable-background:new    ;}
	.st8{opacity:0.1;fill:#A8163D;enable-background:new    ;}
	.st9{opacity:7.000000e-02;fill:#A8163D;enable-background:new    ;}
	.st10{fill:none;}
</style>
<title>blooming</title>
<ellipse class="st0" cx="211" cy="268" rx="211" ry="93"/>
<ellipse class="st1" cx="248.4" cy="249" rx="215.4" ry="93"/>
<circle class="st2" cx="124.8" cy="139.5" r="79"/>
<rect x="88.8" y="201.5" class="st2" width="24" height="43"/>
<rect x="136.8" y="201.5" class="st2" width="24" height="43"/>
<ellipse class="st2" cx="108.8" cy="245" rx="20" ry="7.5"/>
<ellipse class="st2" cx="156.8" cy="244" rx="20" ry="7.5"/>
<circle class="st3" cx="126.8" cy="119.5" r="27"/>
<circle class="st2" cx="126.8" cy="119.5" r="9"/>
<path class="st4" d="M48.2,66c-6.4-28.6,14-57.4,45.5-64.5s62.3,10.4,68.6,39s-14.5,39.1-46.1,46.1S54.6,94.6,48.2,66z"/>
<ellipse transform="matrix(0.9193 -0.3935 0.3935 0.9193 -28.5551 85.4053)" class="st2" cx="194" cy="112.3" rx="39.5" ry="12.4"/>
<ellipse transform="matrix(0.9193 -0.3935 0.3935 0.9193 -61.3481 31.4457)" class="st2" cx="46" cy="165.3" rx="39.5" ry="12.4"/>
<path class="st3" d="M170.8,162.5c0,7.7-19.9,23-42,23s-43-14.3-43-22s20.9-6,43-6S170.8,154.8,170.8,162.5z"/>
<circle class="st2" cx="343" cy="173.3" r="79"/>
<rect x="369.4" y="229.7" transform="matrix(0.984 -0.1781 0.1781 0.984 -38.6348 71.9518)" class="st2" width="24" height="43"/>
<rect x="322.2" y="238.2" transform="matrix(0.984 -0.1781 0.1781 0.984 -40.9033 63.6814)" class="st2" width="24" height="43"/>
<ellipse transform="matrix(0.7631 -0.6463 0.6463 0.7631 -105.8429 283.6214)" class="st2" cx="333.9" cy="286.2" rx="20" ry="7.5"/>
<ellipse transform="matrix(0.7631 -0.6463 0.6463 0.7631 -89.4523 311.5609)" class="st2" cx="380.2" cy="277.8" rx="20" ry="7.5"/>
<circle class="st3" cx="337.4" cy="153.9" r="27"/>
<circle class="st2" cx="326.3" cy="144.3" r="9"/>
<ellipse transform="matrix(0.2234 -0.9747 0.9747 0.2234 54.8507 386.5337)" class="st2" cx="270" cy="158.8" rx="12.4" ry="39.5"/>
<ellipse transform="matrix(0.2234 -0.9747 0.9747 0.2234 150.1374 557.8211)" class="st2" cx="425.1" cy="184.7" rx="12.4" ry="39.5"/>
<path class="st3" d="M364.6,204.4c1.8,9.8-4.7,19.1-14.5,20.9c-9.8,1.8-19.1-4.7-20.9-14.5s5.8-13.2,15.6-15
	C354.6,194,362.9,194.6,364.6,204.4z"/>
<rect x="226.4" y="116.4" transform="matrix(0.5952 -0.8036 0.8036 0.5952 -7.8828 234.6576)" class="st4" width="5.2" height="17.5"/>
<rect x="224.7" y="119.5" transform="matrix(0.1752 -0.9845 0.9845 0.1752 61.2156 329.6028)" class="st4" width="5.2" height="17.5"/>
<path class="st5" d="M208,187.7c0.9-2.2,49.1-113.5,48.4-111.9c9.5,5.5,16,6.9,16,6.9l-48.3,111.9
	C224.1,194.6,217.1,191.1,208,187.7z"/>
<rect x="236.7" y="124" transform="matrix(0.3966 -0.918 0.918 0.3966 23.7522 301.6534)" class="st4" width="9.2" height="17.5"/>
<rect x="238.8" y="123.9" transform="matrix(0.3966 -0.918 0.918 0.3966 23.9512 301.6408)" class="st4" width="5.2" height="17.5"/>
<path class="st6" d="M449.9,122.4l-0.6-21.3l1.5-6.8c1.8,0.2,3.6-1,4.1-2.7c0.4-1.3-0.1-2.6-1.1-3.6l3-10h-0.1l0,0l-7.7-2.3
	l-74.6-44.8l-91.6-1.4l-1.2,4.2L317.5,61L303,100.9c19.7,12.5,35.9,19.8,49.3,23.7l0.3,0.1l0.4,0.1c39.3,11.1,52.7-7.5,52.7-7.5
	c1.2-11.6,5.1-23.8,7.3-29.8l40-5.3l0.4-3.2l0.5,0.2l-2.3,7.8c-2-0.3-3.9,1.2-4.2,3.2c-0.1,1.2,0.3,2.4,1.2,3.2l-0.6,3.4
	c0.2,0.4-0.9,1.7-3,3.1"/>
<path class="st6" d="M447.7,123.2h0.6"/>
<path class="st4" d="M406,114.5c0,0-22.3,33.6-100.5-11.8l12.6-39.8l67.4,7.2l27.7,11.4C413.2,81.4,407,98.5,406,114.5z"/>
<polygon class="st7" points="318.1,62.9 317.3,66.4 361.6,95.7 408.9,88.4 410.4,85.1 363,89.9 "/>
<path class="st7" d="M413.3,81.4L385.6,70l-1-0.1l26.7,11c0,0-6.2,17.1-7.2,33.1c0,0-12.5,18.8-51.6,9.3
	c40.6,10.7,53.5-8.8,53.5-8.8C407,98.6,413.3,81.4,413.3,81.4z"/>
<rect x="446.3" y="81.8" transform="matrix(0.2858 -0.9583 0.9583 0.2858 243.0824 492.1463)" class="st6" width="10.9" height="2.4"/>
<path class="st6" d="M445.4,118.7c0,0,7.2,6.2,12.1,1.4l-6.3-21.4l-3.6-1.9L445.4,118.7z"/>
<path class="st8" d="M445.8,119.6c0,0,7.4,6,12.1,1l-7-21.4l-3.7-1.7L445.8,119.6z"/>
<polygon class="st6" points="284.9,30.7 283.7,34.8 361.3,93.9 450.6,82 451.1,78.4 362,89.7 "/>
<polygon class="st9" points="284.9,30.7 283.7,34.8 361.3,93.9 450.6,82 451.1,78.4 362,89.7 "/>
<polygon class="st4" points="284.9,30.7 362.1,90.6 451.1,78.4 374.1,32.1 "/>
<ellipse transform="matrix(0.2464 -0.9692 0.9692 0.2464 227.248 396.8211)" class="st4" cx="368.8" cy="52.3" rx="3.9" ry="6"/>
<rect x="412.9" y="24.9" transform="matrix(0.2858 -0.9583 0.9583 0.2858 231.4588 444.323)" class="st4" width="1.8" height="84"/>
<circle class="st6" cx="448.8" cy="90.4" r="3.6"/>
<circle class="st8" cx="450.3" cy="89.8" r="3.6"/>
<path class="st6" d="M446,98.3c0,0,1.1,2,5.4,1v-7.9l-1.8-0.1L446,98.3z"/>
<path class="st8" d="M447.5,99c0,0-0.1,1.5,3.9-0.4l-0.2-7.5l-1.8,0.3L447.5,99z"/>
<line class="st10" x1="446.3" y1="122.1" x2="444.8" y2="118.5"/>
<path class="st7" d="M322.2,86.3c0,0,16.1,10.3,27.5,9.5L322.2,86.3z"/>
<path class="st7" d="M368.9,102.6c0,0,18.2,5.9,29,2.1L368.9,102.6z"/>
<path class="st7" d="M378.1,119.7c0,0,11.8-1.3,18.3-4.1L378.1,119.7z"/>
<path class="st7" d="M315.2,93.9c0,0,16.8,12.4,22.2,10.6L315.2,93.9z"/>
</svg>
