<svg xmlns="http://www.w3.org/2000/svg" xmlns:xlink="http://www.w3.org/1999/xlink" id="Layer_1" x="0" y="0" enable-background="new 0 0 321.5 102" version="1.1" viewBox="0 0 321.5 102" xml:space="preserve"><style type="text/css">.st0{fill:#1de9b6}.st1{fill:#2b2d42}.st2{fill:#173045}</style><title>logo</title><polygon points="116 0 116 21.5 96.2 41.6 116 21.5 116 0" class="st0"/><polygon points="69 0 27.6 41.6 49 41.6 76.5 13.9 82.8 13.9 55.4 41.6 74.7 41.6 116 0" class="st1"/><polygon points="27.6 41.6 69 83.1 90.3 83.1 49 41.6" class="st1"/><polygon points="55.4 41.6 96.6 83.1 116 83.1 116 83.1 74.7 41.6" class="st1"/><polygon points="116 0 74.7 41.6 116 83.1 116 61.6 96.2 41.6 96.2 41.6 116 21.5" class="st1"/><polyline points="41.2 83.1 62.7 83.1 21.5 41.6 0 41.6 41.2 83.1" class="st1"/><polyline points="41.2 0 62.7 0 21.5 41.6 0 41.6 41.2 0" class="st1"/><path d="M171.1,25.7c-1.9,2.6-5,4.1-8.2,4c-6,0-10.3-4.9-10.3-12c0-7.2,3.9-11.8,9.9-11.8c3.4-0.1,6.5,1.6,8.2,4.4	l0.3,0.5l3.9-2.5L174.6,8c-2.5-4-6.8-6.2-12.2-6.2c-8.8,0-14.6,6.3-14.6,16c0,9.7,6,16.2,15,16.2c5,0,9.3-2,11.9-5.5l0.3-0.4	l-3.6-2.7L171.1,25.7z" class="st2"/><polygon points="187.9 27.7 181.3 10.6 176.7 10.6 185.7 33.1 182.4 41.6 187.1 41.6 198.5 10.6 193.9 10.6" class="st2"/><path d="M206.4,31c1.6,2,4.1,3.1,6.7,3c6.2,0,10.1-4.6,10.1-12c0-7.3-3.8-11.8-10-11.8c-2.6-0.2-5.1,0.9-6.8,2.9V2.2	h-4.3v31.4h4.3V31z M206.4,22.2c0-5.6,2-8.3,6.1-8.3c4.1,0,6.4,2.9,6.4,8.1c0,5.1-2.4,8.2-6.4,8.2C208.3,30.3,206.4,27.7,206.4,22.2	L206.4,22.2z" class="st2"/><path d="M238,10.3c-6.6,0-10.5,4.4-10.5,11.9c0,7.7,3.8,11.9,10.6,11.9c5.5,0,9.3-3.2,9.8-8.1l0-0.5h-4.3l-0.1,0.4	c-0.5,3.8-3.8,4.4-5.7,4.4c-3.7,0-5.8-2.6-6-7.2H248v-1.7C248,14.2,244.5,10.3,238,10.3z M232.1,19.5c0.6-3.6,2.6-5.5,6-5.5	c3.2,0,5.2,2,5.5,5.5H232.1z" class="st2"/><path d="M258.1,20.6c0-3.8,2.1-6,5.5-6c0.4,0,0.9,0,1.3,0.1l0.6,0.2v-4.5l-0.3-0.1c-0.4-0.1-0.8-0.1-1.1-0.1	c-2.3-0.1-4.6,0.9-6,2.8v-2.4h-4.3v23h4.3V20.6z" class="st2"/><path d="M165.9,71.5c-0.6-0.9-1.3-1.7-2.1-2.4c4.2-0.8,7.2-4.5,7-8.7c0-5.4-3.7-8.8-9.6-8.8H149v31.4h4.7V69.6h2.1	c3.1,0,3.1,0,6,3.9l7.1,9.4h5.7l-8.4-11L165.9,71.5z M153.7,55.7h7.4c3.2,0,5.1,1.8,5.1,4.8c0.1,2.6-1.9,4.9-4.6,5	c-0.2,0-0.4,0-0.6,0h-7.4V55.7z" class="st2"/><path d="M186.5,59.6c-6.6,0-10.5,4.4-10.5,11.9c0,7.7,3.8,11.9,10.6,11.9c5.5,0,9.3-3.2,9.8-8.1l0-0.5h-4.3l-0.1,0.4	c-0.5,3.8-3.8,4.4-5.7,4.4c-3.7,0-5.8-2.6-6-7.2h16.1v-1.7C196.5,63.5,192.9,59.6,186.5,59.6z M180.5,68.9c0.6-3.6,2.6-5.5,6-5.5	c3.2,0,5.2,2,5.5,5.5H180.5z" class="st2"/><path d="M213.3,59.5c-2.6-0.2-5.1,0.9-6.8,2.9v-2.5h-4.3v31h4.3V80.3c1.6,2,4.1,3.1,6.7,3c6.2,0,10.1-4.6,10.1-12	C223.4,64.1,219.5,59.5,213.3,59.5z M219,71.4c0,5.1-2.4,8.2-6.4,8.2c-4.2,0-6.1-2.6-6.1-8.1c0-5.6,2-8.3,6.1-8.3	C216.7,63.3,219,66.2,219,71.4L219,71.4z" class="st2"/><path d="M242.8,73.2c0,3.8-2.2,6.2-5.7,6.2c-2.9,0-4-1.6-4-5.5v-14h-4.3v14.9c0,5.7,2.4,8.5,7.5,8.5c2.5,0.1,5-1,6.6-3	v2.6h4.3v-23h-4.3L242.8,73.2z" class="st2"/><path d="M264.8,59.5c-2.6-0.2-5.1,0.9-6.8,2.9V51.5h-4.3v31.4h4.3v-2.6c1.6,2,4.1,3.1,6.7,3c6.2,0,10.1-4.6,10.1-12	C274.9,64.1,271,59.5,264.8,59.5z M270.5,71.4c0,5.1-2.4,8.2-6.4,8.2c-4.2,0-6.1-2.6-6.1-8.1c0-5.6,2-8.3,6.1-8.3	C268.2,63.3,270.5,66.2,270.5,71.4L270.5,71.4z" class="st2"/><rect width="4.3" height="31.4" x="280.4" y="51.5" class="st2"/><path d="M293.4,50.8c-1.6,0-2.9,1.2-2.9,2.8c0,1.6,1.2,2.9,2.8,2.9s2.9-1.2,2.9-2.8c0,0,0,0,0,0	C296.3,52.1,295,50.8,293.4,50.8C293.5,50.8,293.5,50.8,293.4,50.8z" class="st2"/><rect width="4.3" height="23" x="291.3" y="59.9" class="st2"/><path d="M317.1,74.2l0,0.5c-0.3,3.2-2.1,4.8-5.5,4.8c-4.1,0-6.3-2.9-6.3-8.1c0-5.2,2.2-8.1,6.3-8.1	c2.3,0,5.1,0.8,5.5,4.9l0,0.5h4.4l0-0.5c-0.3-5.4-4-8.6-9.7-8.6c-6.7,0-10.7,4.5-10.7,11.9c0,7.4,4,11.9,10.7,11.9	c5.8,0,9.4-3.2,9.7-8.6l0-0.5L317.1,74.2z" class="st2"/></svg>