<svg xmlns="http://www.w3.org/2000/svg" xmlns:xlink="http://www.w3.org/1999/xlink" id="_x32_cf41747-0c0c-4d70-aad4-093c093adad4" x="0" y="0" enable-background="new 0 0 769 781" version="1.1" viewBox="0 0 769 781" xml:space="preserve"><style type="text/css">.st0{fill:#b9314f;stroke:#000;stroke-miterlimit:10}.st1,.st2{fill:#a51c40}.st2,.st3,.st4,.st5{stroke:#000;stroke-miterlimit:10}.st3{fill:#9b1b3c}.st4{fill:#962442}.st5{fill:#a01d3f}.st6{opacity:.3;fill:#b9314f;enable-background:new}.st7{fill:#6c63ff}.st7,.st8{opacity:.1;enable-background:new}.st9{fill:#8d99ae}.st10{fill:#fff}.st11{fill:#b9314f}</style><title>book lover</title><polygon points="435.5 681.5 93.2 679.8 59.2 600.1 179.4 591.3 158.5 503.9 396.3 473 168.6 393.9 188.7 389.1 554.9 448.8 534.8 585.3 505.9 660.3" class="st0"/><path d="M98.4,646.4c0,0,21-3.4,33.6,11.5c0,0-9.2,7.3-29.1-2.8L98.4,646.4z" class="st0"/><path d="M96.2,646.1c0,0-13.4,16.5-6.8,34.8c0,0,10.9-4.4,12.1-26.6L96.2,646.1z" class="st0"/><path d="M84.2,619c0,0,8.4-15.4,42,6.2c0,0-4.5,10.4-19.3,9.5S88.1,627.1,84.2,619z" class="st0"/><path d="M82,617.9c0,0-17.4-2-19.1,37.9c0,0,11.1,2.3,18.9-10.3S86.4,625.7,82,617.9z" class="st0"/><path d="M71.9,586c0,0,9.8-27.2,45.4-7.8c0,0-8.1,24.9-41.7,17.1L71.9,586z" class="st0"/><path d="M60.9,545.4c0,0,18.5-27.4,51.2-2c0,0-11.5,25.8-48.4,11.8L60.9,545.4z" class="st0"/><path d="M57,506.8c0,0,21.6-25.2,54,0c0,0-20.4,22.1-54,6.4V506.8z" class="st0"/><path d="M53.7,469.3c0,0,21.8-26.3,52.9-1.4c0,0-24.6,23.2-52.9,7.6V469.3z" class="st0"/><path d="M55.6,436c0,0,23-33.9,52.1-10.9c0,0-24.6,29.1-52.1,17.4V436z" class="st0"/><path d="M60.9,397c0,0,24.4-33.6,52.6-7.8c0,0-28.8,29.1-52.6,14V397z" class="st1"/><path d="M69.1,362.2c0,0,28.8-31.6,54-19c0,0-30.1,33.5-55.3,27.4L69.1,362.2z" class="st1"/><path d="M79.1,329.3c0,0,33.3-38.7,52.6-25.8c0,0-24.5,30-55,33L79.1,329.3z" class="st1"/><path d="M93.7,291c0,0,29.1-31.6,50.4-23.7c0,0-24.9,32.8-54.3,33.6L93.7,291z" class="st1"/><path d="M106.9,255.2c0,0,32.2-30.2,46.2-24.9c0,0-23.2,33.6-47.6,31.6L106.9,255.2z" class="st1"/><path d="M119.7,222.2c0,0,27.7-36.1,42.9-33.3c0,0-16.8,32.2-42.9,37V222.2z" class="st1"/><path d="M133.7,177.6c0,0,24.5-27.7,37.7-27.6c0,0-19.3,37-38.8,36.7L133.7,177.6z" class="st1"/><path d="M142,148l23.7-57.7c0,0,1.2,52.1-26.7,68.4L142,148z" class="st1"/><path d="M151.6,84.4c0,0,3.9-48.2,1.4-52.1c0,0,16.9,40.1-1.6,73.4L151.6,84.4z" class="st1"/><path d="M70.9,585.4c0,0-24.5-15.2-40.4,22c0,0,21.8,14.5,43.3-12.5L70.9,585.4z" class="st0"/><path d="M60.1,543.9c0,0-30.1-13.7-44.7,25.1c0,0,23.3,16,47.4-15.3L60.1,543.9z" class="st0"/><path d="M55.6,509.1c0,0-21.6-25.2-54,0c0,0,20.4,22.1,54,6.4V509.1z" class="st0"/><path d="M52.9,469.3c0,0-21.8-26.3-52.9-1.4c0,0,24.6,23.2,52.9,7.6V469.3z" class="st0"/><path d="M55.6,436.9c0,0-15.3-38-48.6-21.6c0,0,18,33.7,47.3,27.9L55.6,436.9z" class="st0"/><path d="M62.9,396.8c0,0-15.2-38.6-49-20.7c0,0,20.7,35.4,47.5,26.7L62.9,396.8z" class="st1"/><path d="M72.3,362.4c0,0-6-42.3-34-46.1c0,0,5.9,44.6,30.2,53.8L72.3,362.4z" class="st1"/><path d="M79.8,329.3c0,0-2.3-51-25.5-52.8c0,0,0.8,38.7,22.9,60L79.8,329.3z" class="st1"/><path d="M96.1,289.6c0,0-6.9-42.4-29-47.6c0,0,2.7,41.1,26.8,58L96.1,289.6z" class="st1"/><path d="M109.5,255.6c0,0-0.2-44.2-13.7-50.7c0,0-8.4,40,9.8,56.3L109.5,255.6z" class="st1"/><path d="M120.8,221.7c0,0-1.9-45.5-15.9-51.9c0,0-4.8,36,13.8,54.9L120.8,221.7z" class="st1"/><path d="M135.7,181.3c0,0-0.1-37-10.1-45.7c0,0-9.9,40.5,4.9,53.1L135.7,181.3z" class="st1"/><path d="M140.8,146.2l-9.7-61.6c0,0-13.2,50.5,10.2,72.7L140.8,146.2z" class="st1"/><path d="M142.7,84.9c0,0-24.9-41.4-24.4-46c0,0,2.6,43.4,34,65L142.7,84.9z" class="st1"/><path d="M145.6,72.7c0,0-23.5-58.8-34.2-63.6c0,0,33.6,17.1,36.1,61.9L145.6,72.7z" class="st1"/><path d="M132.6,187l-1.6-0.5c19.9-64.7,24.8-106,13.9-116.3l1.1-1.2C157.6,79.9,152.9,120.7,132.6,187z" class="st1"/><path d="M77.9,338.6l-2.4-0.9c2.1-5.9,4.4-12,6.8-17.9c20.7-51.6,38.4-99.7,49.7-136.6l2.1-1	c-11.3,37-28.7,86.8-49.4,138.5C82.3,326.7,80,332.6,77.9,338.6z" class="st1"/><path d="M128,694.9c-0.3-0.3-32.5-36.6-54.9-98.4c-13.1-36.2-20.5-74.3-21.7-112.8C49.9,435.5,60,381.8,77.3,333	l1.9,2.2c-38.8,109.6-23.4,203.5-2.9,260c22.2,61.3,54,97.1,54.3,97.5L128,694.9z" class="st2"/><path d="M630.7,617.9c0,0-22.7,27.7-4.7,69.5l-181,78.5l-17.4,3.6l-8-35l5.3-44.2v-24.1L630.7,617.9z" class="st0"/><polygon points="59.2 600.1 309.7 554.4 641.6 607.3 435.5 681.5" class="st0"/><polygon points="59.2 600.1 309.7 554.4 641.6 607.3 435.5 681.5" class="st0"/><path d="M59.2,600c0,0-23.4,44.4,3.6,85.4l371.5,80.5c0,0-23.1-35.4,1.2-84.4L59.2,600z" class="st0"/><path d="M59.2,600c0,0-23.4,44.4,3.6,85.4l371.5,80.5c0,0-23.1-35.4,1.2-84.4L59.2,600z" class="st0"/><path d="M70.2,615.4c0,0-13.4,32.5,0,53.5" class="st0"/><path d="M434.2,765.9l207.4-88.5c0,0,11.6,2.5,4.1,11s-207.5,86-207.5,86l-375.5-89L434.2,765.9z" class="st0"/><path d="M434.2,765.9l207.4-88.5c0,0,11.6,2.5,4.1,11s-207.5,86-207.5,86l-375.5-89L434.2,765.9z" class="st0"/><path d="M417.2,690.4c0,0-20,24,0,60" class="st0"/><rect width="94.6" height="1" x="422.1" y="705" class="st0" transform="matrix(0.9486 -0.3165 0.3165 0.9486 -199.1409 184.8031)"/><rect width="115.2" height="1" x="420.7" y="707.5" class="st0" transform="matrix(0.9347 -0.3554 0.3554 0.9347 -220.4118 216.2529)"/><rect width="133.6" height="1" x="420.1" y="712.2" class="st0" transform="matrix(0.9255 -0.3788 0.3788 0.9255 -233.6799 237.5601)"/><rect width="153.7" height="1" x="419.8" y="714.2" class="st0" transform="matrix(0.9113 -0.4117 0.4117 0.9113 -250.1802 267.8164)"/><rect width="168.1" height="1" x="420.6" y="716.2" class="st0" transform="matrix(0.9163 -0.4005 0.4005 0.9163 -244.8095 262.1366)"/><rect width="201.2" height="1" x="421.7" y="716.9" class="st0" transform="matrix(0.918 -0.3965 0.3965 0.918 -241.6184 265.9186)"/><polygon points="152.2 604.9 328.2 567.9 435.5 588.4 291.2 634.9" class="st0"/><path d="M641.6,607.3c0,0,9.1,3.7,3.8,9.3s-210,64.9-210,64.9L641.6,607.3z" class="st0"/><path d="M730,521.8c0,0-22.7,27.7-4.7,69.5l-181,78.5l-17.4,3.7l-8-35l5.4-44.2v-24.2L730,521.8z" class="st0"/><polygon points="158.5 503.9 409 458.2 740.9 511.1 534.8 585.3" class="st3"/><path d="M158.4,503.9c0,0-23.4,44.4,3.6,85.4l371.5,80.5c0,0-23-35.4,1.2-84.5L158.4,503.9z" class="st0"/><path d="M158.4,503.9c0,0-23.4,44.4,3.6,85.4l371.5,80.5c0,0-23-35.4,1.2-84.5l-117.5-25.4L158.4,503.9z" class="st4"/><path d="M169.5,519.3c0,0-13.4,32.5,0,53.5" class="st0"/><path d="M533.5,669.8l207.4-88.5c0,0,11.6,2.5,4.1,11s-207.5,86-207.5,86l-375.5-89L533.5,669.8z" class="st0"/><path d="M533.5,669.8l207.4-88.5c0,0,11.6,2.5,4.1,11s-207.5,86-207.5,86l-375.5-89L533.5,669.8z" class="st0"/><path d="M516.5,594.3c0,0-20,24,0,60" class="st0"/><rect width="94.6" height="1" x="521.4" y="608.8" class="st0" transform="matrix(0.9486 -0.3165 0.3165 0.9486 -163.6016 211.2855)"/><rect width="115.2" height="1" x="520" y="611.3" class="st0" transform="matrix(0.9347 -0.3554 0.3554 0.9347 -179.7435 245.2711)"/><rect width="133.6" height="1" x="519.4" y="616" class="st0" transform="matrix(0.9255 -0.3788 0.3788 0.9255 -189.8428 268.0058)"/><rect width="153.7" height="1" x="519.1" y="618" class="st0" transform="matrix(0.9113 -0.4117 0.4117 0.9113 -201.7776 300.1699)"/><rect width="168.2" height="1" x="519.9" y="620" class="st0" transform="matrix(0.9163 -0.4005 0.4005 0.9163 -197.9695 293.8517)"/><rect width="201.2" height="1" x="521" y="620.7" class="st0" transform="matrix(0.918 -0.3965 0.3965 0.918 -195.3354 297.4067)"/><polygon points="251.5 508.8 427.5 471.8 534.8 492.3 390.5 538.8" class="st0"/><path d="M740.9,511.1c0,0,9.1,3.7,3.8,9.3s-209.9,64.9-209.9,64.9L740.9,511.1z" class="st0"/><path d="M739.4,411.7c0,0-22.7,49.7-4.7,91.5l-181,56.5l-17.3,3.7l-8-35l5.3-44.2v-24.2L739.4,411.7z" class="st0"/><polygon points="167.9 393.9 418.4 348.2 750.4 401.1 544.2 475.3" class="st5"/><path d="M167.9,393.8c0,0-23.5,44.4,3.5,85.4l371.5,80.5c0,0-23.1-35.4,1.2-84.4L167.9,393.8z" class="st0"/><path d="M167.9,393.8c0,0-23.5,44.4,3.5,85.4l371.5,80.5c0,0-23.1-35.4,1.2-84.4L167.9,393.8z" class="st2"/><path d="M179,409.2c0,0-13.4,32.5,0,53.5" class="st0"/><path d="M543,559.7l207.4-66.5c0,0,11.6,2.5,4.1,11s-207.5,64-207.5,64l-375.5-89L543,559.7z" class="st0"/><path d="M543,559.7l207.4-66.5c0,0,11.6,2.5,4.1,11s-207.5,64-207.5,64l-375.5-89L543,559.7z" class="st0"/><rect width="94.6" height="1" x="530.8" y="498.8" class="st0" transform="matrix(0.9486 -0.3165 0.3165 0.9486 -128.2937 208.6183)"/><rect width="115.2" height="1" x="529.5" y="501.3" class="st0" transform="matrix(0.9347 -0.3554 0.3554 0.9347 -140.0201 241.4404)"/><rect width="133.6" height="1" x="528.9" y="506" class="st0" transform="matrix(0.9255 -0.3788 0.3788 0.9255 -147.4628 263.3773)"/><rect width="153.7" height="1" x="528.5" y="508" class="st0" transform="matrix(0.9113 -0.4117 0.4117 0.9113 -155.6437 294.3)"/><rect width="168.1" height="1" x="529.4" y="510" class="st0" transform="matrix(0.9163 -0.4005 0.4005 0.9163 -153.1143 288.4253)"/><rect width="201.2" height="1" x="530.5" y="510.6" class="st0" transform="matrix(0.918 -0.3965 0.3965 0.918 -150.9398 292.133)"/><polygon points="261 398.7 437 361.7 544.2 382.2 400 428.7" class="st6"/><path d="M750.4,401.1c0,0,9.1,3.7,3.8,9.3s-209.9,64.9-209.9,64.9L750.4,401.1z" class="st0"/><ellipse cx="316.8" cy="801.6" class="st7" rx="23" ry="2.6"/><path d="M647.7,374.6c0,0-35.7,5.4-42.3,12.7" class="st8"/><path d="M611.7,485.4c0,0,20.7-13.4,47-0.4" class="st0"/><path d="M561.9,409.7c3.6-2.7,7.5-5.1,11.5-7.1c6-2.9,17-10.4,17-10.4" class="st8"/><ellipse cx="524.6" cy="149.1" class="st9" rx="57.7" ry="18.1" transform="matrix(0.357 -0.9341 0.9341 0.357 198.0577 585.8676)"/><circle cx="417.9" cy="236.1" r="115.5" class="st9"/><rect width="35.1" height="62.8" x="365.2" y="326.8" class="st9"/><rect width="35.1" height="62.8" x="435.4" y="326.8" class="st9"/><ellipse cx="394.5" cy="389.6" class="st9" rx="29.2" ry="10.9"/><ellipse cx="464.5" cy="388.2" class="st9" rx="29.2" ry="10.9"/><circle cx="420.8" cy="206.9" r="39.5" class="st10"/><circle cx="420.8" cy="206.9" r="13.2" class="st9"/><path d="M305.9,128.9c-9.4-41.8,20.5-83.9,66.5-94.3s91.1,15.2,100.3,57c9.2,41.8-21.2,57.1-67.4,67.4	S315.3,170.5,305.9,128.9z" class="st11"/><ellipse cx="287.8" cy="182.7" class="st9" rx="18.1" ry="57.7" transform="matrix(0.4285 -0.9035 0.9035 0.4285 -0.5888 364.398)"/><path d="M361.2,277.3c0,11.2,29,33.5,61.3,33.5s62.4-31.8,62.4-43c0-11.2-30.2,2.2-62.4,2.2S361.2,266.1,361.2,277.3z" class="st10"/></svg>