<?xml version="1.0" encoding="utf-8"?>
<!-- Generator: Adobe Illustrator 22.1.0, SVG Export Plug-In . SVG Version: 6.00 Build 0)  -->
<svg version="1.1" id="Layer_1" xmlns="http://www.w3.org/2000/svg" xmlns:xlink="http://www.w3.org/1999/xlink" x="0px" y="0px"
	 viewBox="0 0 335.2 85.6" style="enable-background:new 0 0 335.2 85.6;" xml:space="preserve">
<style type="text/css">
	.st0{fill:#131313;}
</style>
<g>
	<polygon class="st0" points="62.8,18.8 77.3,27.2 77.3,0 53.8,13.5 	"/>
	<polygon class="st0" points="52.6,15.6 52.6,42.7 76.1,29.2 67.2,23.9 	"/>
	<polygon class="st0" points="79.5,27.2 103,13.5 79.5,0 	"/>
	<polygon class="st0" points="23.5,27.2 23.5,0 0,13.5 	"/>
	<polygon class="st0" points="49.2,13.5 25.8,0 25.8,27.2 42.9,17.3 	"/>
	<polygon class="st0" points="26.9,29.2 50.4,42.7 50.4,15.6 33.3,25.5 	"/>
	<path class="st0" d="M79.5,27.2V0L103,13.5L79.5,27.2z M52.6,42.7V15.6l14.4,8.4l9,5.3L52.6,42.7z M77.3,27.2l-14.4-8.4l-9-5.4
		L77.3,0V27.2z M50.4,42.7L26.9,29.2l6.4-3.7l17.1-10V42.7z M25.8,27.2V0l23.5,13.5l-6.4,3.7L25.8,27.2z M23.5,27.2L0,13.5L23.5,0
		V27.2z"/>
</g>
<g>
	<polygon class="st0" points="77.3,42.8 53.8,56.4 53.9,56.5 77.3,70 	"/>
	<polygon class="st0" points="52.6,85.6 76.1,72 76,72 52.6,58.4 	"/>
	<polygon class="st0" points="103,56.4 79.5,42.8 79.5,70 	"/>
	<polygon class="st0" points="25.8,70 49.2,56.4 25.8,42.8 	"/>
	<polygon class="st0" points="50.4,58.4 26.9,72 50.4,85.6 	"/>
	<polygon class="st0" points="23.5,42.8 0,56.4 23.5,70 	"/>
</g>
<g>
	<g>
		<path class="st0" d="M141.5,47.7c-0.8,8-7,12.9-15.6,12.9c-11.9,0-17.3-8-17.3-19.7c0-11.5,5.6-19.7,16.9-19.7
			c11.6,0,16.1,7.9,16.1,18.3v1.7H113c0.1,10.4,5.2,15.6,12.3,15.6c6.1,0,10.9-2.6,11.8-8.9h4.4V47.7z M137.3,37.3
			c-0.3-7.5-4.5-12.2-11.5-12.2c-6.9,0-11.6,3.9-12.6,12.2H137.3z"/>
		<path class="st0" d="M151.7,7.3h4.3v52.6h-4.3V7.3z"/>
		<path class="st0" d="M190.5,53.7h-0.1c-2.8,4.3-7.3,6.8-14.1,6.8c-8.1,0-12-4.6-12-10.1c0-11.1,11.6-11.2,19.5-12.5
			c5.8-0.9,6.7-1.3,6.7-4c0-5.1-3.1-8.9-9.7-8.9c-6.2,0-9.2,2.3-10.2,8.9h-4.4c0.9-8.3,5.6-12.9,14.8-12.9c8.6,0,13.9,4.2,13.9,13.9
			v24.9h-4.3L190.5,53.7L190.5,53.7z M190.5,40.3c-9.6,2.6-21.9,1.1-21.9,9.6c0,4.1,3.5,6.7,8.3,6.7c8,0,13.6-4.8,13.6-12.4V40.3
			L190.5,40.3z"/>
		<path class="st0" d="M208.8,47.7c0.7,6.7,4.8,8.9,11.2,8.9c5.2,0,8.7-2,8.7-6.7c0-11.1-22.9-2.8-22.9-18c0-6,4.5-10.8,12.8-10.8
			c8,0,13.1,4.2,13.6,12.9h-4.4c-0.6-6.3-3.6-8.9-9.2-8.9c-6.3,0-8.5,3.3-8.5,7c0,10.4,22.9,2.9,22.9,17.8c0,6.7-5.1,10.8-13.6,10.8
			c-9.3,0-14.4-4.5-14.9-12.9L208.8,47.7L208.8,47.7z"/>
		<path class="st0" d="M243.3,25.7h-5.5v-3.8h5.5V12h4.3v9.8h8.9v3.8h-8.9v25c0,4.2,2.1,6,5.2,6c1.1,0,2.3-0.1,3.7-0.4V60
			c-1.5,0.4-2.9,0.6-4.3,0.6c-4.8,0-8.8-2.8-8.8-9.2V25.7H243.3z"/>
		<path class="st0" d="M261,40.9c0-11.8,7.5-19.7,18.5-19.7c10.9,0,18.5,8,18.5,19.7s-7.5,19.7-18.5,19.7S261,52.7,261,40.9z
			 M293.5,40.9c0-9.4-5.8-15.8-14.1-15.8c-8.2,0-14.1,6.4-14.1,15.8s5.8,15.8,14.1,15.8C287.7,56.6,293.5,50.3,293.5,40.9z"/>
		<path class="st0" d="M309,47.7c0.7,6.7,4.8,8.9,11.2,8.9c5.2,0,8.7-2,8.7-6.7c0-11.1-22.9-2.8-22.9-18c0-6,4.5-10.8,12.8-10.8
			c8,0,13.1,4.2,13.6,12.9h-4.5c-0.6-6.3-3.6-8.9-9.2-8.9c-6.3,0-8.5,3.3-8.5,7c0,10.4,22.9,2.9,22.9,17.8c0,6.7-5.1,10.8-13.6,10.8
			c-9.3,0-14.4-4.5-14.9-12.9L309,47.7L309,47.7z"/>
	</g>
</g>
</svg>
