<svg xmlns="http://www.w3.org/2000/svg" xmlns:xlink="http://www.w3.org/1999/xlink" id="Layer_1" x="0" y="0" enable-background="new 0 0 136.5 181.9" version="1.1" viewBox="0 0 136.5 181.9" xml:space="preserve"><style type="text/css">.st0{fill:#fff}.st1{fill:#434d72}.st2{fill:#2a3d58}.st3{fill:#173045}.st4{fill:#1de9b6}.st5{fill:#43af92}</style><title>footer-shield</title><path d="M0,0v113.6c0,37.7,30.6,68.3,68.3,68.3s68.3-30.6,68.3-68.3V0H0z" class="st0"/><path d="M27,130.8l2.9,5.5l-1.4,0.8l-2-3.8l-1.7,0.9l1.9,3.5l-1.4,0.7l-1.9-3.5l-1.9,1l2,3.9l-1.4,0.8l-3-5.7L27,130.8z" class="st1"/><path d="M31.9,139.1l1.3,1.5l-5.5,4.6l2.6,3.2l-1.2,1l-3.9-4.7L31.9,139.1z" class="st1"/><path d="M40,147.6l1.6,1.3l-2.8,9l-1.7-1.3l0.5-1.7l-2.5-1.9l-1.5,1l-1.7-1.3L40,147.6z M38.2,153.2l1.1-3.1l-2.7,1.8	L38.2,153.2z" class="st1"/><path d="M51.3,160.6c-0.2,0.9,0.4,1.7,1.2,1.9c0,0,0,0,0,0c0.9,0.3,1.4,0,1.6-0.4c0.5-1.7-4.4-2.1-3.5-5.1	c0.5-1.5,1.9-2.3,3.8-1.7c2.3,0.7,2.9,2.1,2.6,3.9l-1.9-0.6c0.2-0.8-0.3-1.6-1.1-1.8c0,0,0,0,0,0c-0.8-0.3-1.2,0.1-1.4,0.5	c-0.5,1.6,4.5,2,3.5,5.2c-0.5,1.5-2,2.2-3.9,1.5c-2.4-0.7-3.2-2-2.7-4.1L51.3,160.6z" class="st1"/><path d="M61.4,157.1l6.3,0.5l-0.1,1.6l-4.2-0.4l-0.2,1.9l4,0.3l-0.1,1.6l-4-0.3l-0.2,2.1l4.4,0.4l-0.1,1.6l-6.4-0.5	L61.4,157.1z" class="st1"/><path d="M79.6,163.4c-0.5,1.5-1.8,2.5-3.3,2.6c-2.8,0.4-4.5-1.2-4.9-3.9c-0.4-2.7,0.9-4.7,3.5-5.1	c1.6-0.4,3.3,0.4,4,1.9l-1.7,1c-0.3-0.9-1.2-1.4-2.1-1.2c-1.4,0.2-2,1.4-1.7,3.2c0.2,1.7,1.3,2.7,2.7,2.5c0.8-0.1,1.5-0.7,1.7-1.5	L79.6,163.4z" class="st1"/><path d="M81.6,155.7l1.9-0.8l1.9,4.8c0.5,1.3,1.4,1.6,2.4,1.2c1-0.4,1.4-1.3,0.9-2.6l-1.9-4.8l1.9-0.8l2,5	c0.9,2.2,0,3.9-2.2,4.7c-2.1,0.9-4,0.3-4.9-1.9L81.6,155.7z" class="st1"/><path d="M91.7,151.1l3.3-2.4c1.1-1,2.8-0.9,3.8,0.2c0.1,0.1,0.1,0.2,0.2,0.3c0.9,1,0.8,2.5-0.1,3.4	c0.4,0,0.7,0.1,1.1,0.2l3.2,0.9l-1.9,1.4l-2.5-0.7c-1.4-0.4-1.6-0.3-2,0l-0.1,0.1l1.9,2.6l-1.6,1.2L91.7,151.1z M97,152.3	c0.6-0.3,0.8-0.9,0.5-1.5c0-0.1-0.1-0.2-0.2-0.2c-0.3-0.5-1.1-0.7-1.6-0.4c0,0-0.1,0.1-0.1,0.1l-1.4,1l1.4,2L97,152.3z" class="st1"/><path d="M99.8,144.8l4.2-4.7l1.2,1.1l-2.8,3.2l1.4,1.3l2.7-3l1.2,1.1l-2.7,3l1.6,1.4l2.9-3.3l1.2,1.1l-4.3,4.8	L99.8,144.8z" class="st1"/><path d="M106,137.4l1.7-3.1c1.3-2.1,4-2.7,6.1-1.5c2,1.2,2.7,3.7,1.7,5.7l-1.7,3.1L106,137.4z M114,137.8	c0.6-1.2,0.1-2.5-1.4-3.3c-1.5-0.8-2.9-0.5-3.5,0.6l-0.7,1.3l4.9,2.7L114,137.8z" class="st1"/><rect width="3.5" height="12.9" x="76.1" y="65.5" class="st1"/><rect width="3.5" height="9.2" x="72.7" y="52.6" class="st1"/><polygon points="72.7 61.8 75.3 59.4 77.9 62.3 77.9 65.5 76.1 65.5" class="st1"/><rect width="3.5" height="9.2" x="79.6" y="52.6" class="st1"/><polygon points="83.1 61.8 80.5 59.4 77.9 62.3 77.9 65.5 79.7 65.5" class="st1"/><rect width="3.5" height="25.7" x="105.4" y="52.6" class="st1"/><rect width="10.4" height="3.5" x="98.6" y="74.9" class="st1"/><rect width="3.5" height="25.7" x="98.6" y="52.6" class="st1"/><rect width="3.5" height="25.7" x="92.5" y="52.6" class="st1"/><rect width="10.4" height="3.5" x="85.6" y="74.9" class="st1"/><rect width="10.4" height="3.5" x="85.6" y="52.6" class="st1"/><rect width="3.5" height="25.7" x="85.6" y="52.6" class="st1"/><polygon points="118.3 52.6 121.8 52.6 121.8 63.8 118.3 67.3" class="st1"/><rect width="3.5" height="25.7" x="111.5" y="52.6" class="st1"/><rect width="10.4" height="3.5" x="111.5" y="52.6" class="st1"/><rect width="6.9" height="3.5" x="111.5" y="63.7" class="st1"/><rect width="3.5" height="11.1" x="118.3" y="67.3" class="st1"/><polygon points="40.5 17.2 40.5 37.3 49.5 37.3 49.5 21.3 45.4 17.2" class="st2"/><polygon points="52.5 17.2 52.5 37.3 61.4 37.3 61.4 21.3 57.4 17.2" class="st2"/><polygon points="16.6 17.2 16.6 37.3 25.5 37.3 25.5 21.3 21.5 17.2" class="st2"/><polygon points="28.6 17.2 28.6 37.3 37.5 37.3 37.5 21.3 33.4 17.2" class="st2"/><polygon points="48.6 67.4 16.6 67.4 16.6 40.2 32.3 40.2 38.8 40.2 45.8 40.2 64.4 40.2 64.4 54.6" class="st3"/><rect width="32" height="8.1" x="16.6" y="70.3" class="st1"/><polygon points="48.6 67.4 16.6 67.4 16.6 57.7 31.2 46.4 64.4 46.4 64.4 54.6" class="st1"/><rect width="14.6" height="9.5" x="44.6" y="32.4" class="st1"/><polygon points="54.8 32.4 54.8 52.5 64.4 52.5 64.4 36.5 60.3 32.4" class="st1"/><polygon points="99.1 42.4 95.6 42.4 95.6 31.5 99.1 28.1" class="st1"/><rect width="3.5" height="25.7" x="85.6" y="17.2" class="st1"/><rect width="3.5" height="25.7" x="105.4" y="17.2" class="st1"/><rect width="23.3" height="3.5" x="85.6" y="39.5" class="st1"/><rect width="3.5" height="25.7" x="79.6" y="17.2" class="st1"/><rect width="10.4" height="3.5" x="72.7" y="39.5" class="st1"/><rect width="10.4" height="3.5" x="72.7" y="17.2" class="st1"/><rect width="3.5" height="25.7" x="72.7" y="17.2" class="st1"/><rect width="3.5" height="25.7" x="118.3" y="17.2" class="st1"/><rect width="10.4" height="3.5" x="111.5" y="17.2" class="st1"/><rect width="3.5" height="25.7" x="111.5" y="17.2" class="st1"/><rect width="3.5" height="25.7" x="57.2" y="88" class="st1"/><rect width="10.4" height="3.5" x="57.2" y="88" class="st1"/><rect width="10.4" height="3.5" x="57.2" y="99.1" class="st1"/><rect width="10.4" height="3.5" x="57.2" y="110.3" class="st1"/><rect width="3.5" height="25.7" x="97.9" y="88" class="st1"/><rect width="10.4" height="3.5" x="97.9" y="88" class="st1"/><rect width="10.4" height="3.5" x="97.9" y="99.1" class="st1"/><rect width="10.4" height="3.5" x="97.9" y="110.3" class="st1"/><polygon points="77.7 88 81.2 88 81.2 99.1 77.7 102.6" class="st1"/><rect width="3.5" height="25.7" x="70.8" y="88" class="st1"/><rect width="10.4" height="3.5" x="70.8" y="88" class="st1"/><rect width="6.9" height="3.5" x="70.8" y="99.1" class="st1"/><rect width="3.5" height="11.1" x="77.7" y="102.6" class="st1"/><rect width="3.5" height="25.7" x="84.4" y="88" class="st1"/><rect width="10.4" height="3.5" x="84.4" y="88" class="st1"/><rect width="3.5" height="25.7" x="91.2" y="88" class="st1"/><rect width="3.5" height="25.7" x="30.1" y="88" class="st1"/><rect width="10.4" height="3.5" x="30.1" y="88" class="st1"/><rect width="3.5" height="25.7" x="37" y="88" class="st1"/><rect width="10.4" height="3.5" x="16.6" y="110.3" class="st1"/><rect width="3.5" height="25.7" x="20.1" y="88" class="st1"/><rect width="10.4" height="3.5" x="16.6" y="88" class="st1"/><rect width="3.5" height="25.7" x="47.2" y="88" class="st1"/><rect width="10.4" height="3.5" x="43.7" y="88" class="st1"/><rect width="3.5" height="25.7" x="115" y="88" class="st1"/><rect width="10.4" height="3.5" x="111.5" y="88" class="st1"/><polygon points="69.9 134.9 76.5 131.2 69.9 127.3" class="st4"/><polygon points="69.9 134.9 63.3 131.2 69.9 127.3" class="st5"/><polygon points="76.5 123.6 69.9 127.3 76.5 131.2" class="st5"/><polygon points="76.5 123.6 83 127.3 76.5 131.2" class="st4"/><polygon points="63.3 123.6 56.8 127.3 63.3 131.2" class="st5"/><polygon points="63.3 123.6 69.9 127.3 63.3 131.2" class="st4"/><polygon points="69.9 145.4 76.5 141.6 69.9 137.8" class="st4"/><polygon points="69.9 145.4 63.3 141.6 69.9 137.8" class="st5"/><polygon points="76.5 134 69.9 137.8 76.5 141.6" class="st5"/><polygon points="76.5 134 83 137.8 76.5 141.6" class="st4"/><polygon points="63.3 134 56.8 137.8 63.3 141.6" class="st5"/><polygon points="63.3 134 69.9 137.8 63.3 141.6" class="st4"/></svg>