<?xml version="1.0" encoding="utf-8"?>
<!-- Generator: Adobe Illustrator 22.1.0, SVG Export Plug-In . SVG Version: 6.00 Build 0)  -->
<svg version="1.1" id="b32a285a-6b04-4396-8e15-f52ff515c3cb"
	 xmlns="http://www.w3.org/2000/svg" xmlns:xlink="http://www.w3.org/1999/xlink" x="0px" y="0px" viewBox="0 0 1115.9 615"
	 style="enable-background:new 0 0 1115.9 615;" xml:space="preserve">
<style type="text/css">
	.st0{fill:none;stroke:#8D99AE;stroke-width:2;stroke-miterlimit:10;}
	.st1{fill:#8D99AE;}
	.st2{fill:none;stroke:#3F3D56;stroke-width:2;stroke-miterlimit:10;}
	.st3{fill:#B9314F;}
	.st4{fill:#FFFFFF;}
</style>
<title>good team</title>
<line class="st0" x1="469.2" y1="241.7" x2="597" y2="241.7"/>
<ellipse transform="matrix(0.357 -0.9341 0.9341 0.357 -249.8671 456.6848)" class="st1" cx="206.8" cy="409.8" rx="39.5" ry="12.4"/>
<polyline class="st2" points="49.5,361 492,361 560.6,394.4 669.9,447.7 741.3,313.9 943.6,313.9 "/>
<circle class="st3" cx="222.8" cy="375" r="13.7"/>
<circle class="st3" cx="350.5" cy="361" r="13.7"/>
<circle class="st3" cx="560.4" cy="394.5" r="13.7"/>
<circle class="st3" cx="855.4" cy="313.9" r="13.7"/>
<circle class="st3" cx="712.4" cy="367.1" r="13.7"/>
<circle class="st0" cx="320.9" cy="474.7" r="29.9"/>
<circle class="st1" cx="133.8" cy="469.4" r="79"/>
<rect x="97.8" y="531.4" class="st1" width="24" height="43"/>
<rect x="145.8" y="531.4" class="st1" width="24" height="43"/>
<ellipse class="st1" cx="117.8" cy="574.9" rx="20" ry="7.5"/>
<ellipse class="st1" cx="165.8" cy="573.9" rx="20" ry="7.5"/>
<circle class="st4" cx="135.8" cy="449.4" r="27"/>
<circle class="st1" cx="135.8" cy="449.4" r="9"/>
<path class="st3" d="M57.2,396c-6.4-28.6,14-57.4,45.5-64.5s62.3,10.4,68.6,39s-14.5,39.1-46.1,46.1S63.6,424.5,57.2,396z"/>
<ellipse transform="matrix(0.4285 -0.9035 0.9035 0.4285 -365.4601 287.79)" class="st1" cx="44.8" cy="432.8" rx="12.4" ry="39.5"/>
<path class="st4" d="M95,497.9c0,7.7,19.9,23,42,23s42.8-21.8,42.8-29.5s-20.7,1.5-42.8,1.5S95,490.2,95,497.9z"/>
<rect x="847" y="432.8" class="st0" width="126.1" height="64.2"/>
<rect x="411.6" y="112.5" class="st3" width="36" height="36"/>
<rect x="402.6" y="100.5" class="st0" width="36" height="36"/>
<circle class="st1" cx="906.1" cy="189.5" r="79"/>
<rect x="932.5" y="245.9" transform="matrix(0.984 -0.1781 0.1781 0.984 -32.5233 172.4905)" class="st1" width="24" height="43"/>
<rect x="885.3" y="254.4" transform="matrix(0.984 -0.1781 0.1781 0.984 -34.7917 164.2202)" class="st1" width="24" height="43"/>
<ellipse transform="matrix(0.7631 -0.6463 0.6463 0.7631 17.0645 651.3788)" class="st1" cx="897" cy="302.4" rx="20" ry="7.5"/>
<ellipse transform="matrix(0.7631 -0.6463 0.6463 0.7631 33.4669 679.3254)" class="st1" cx="943.3" cy="294" rx="20" ry="7.5"/>
<circle class="st4" cx="900.5" cy="170.1" r="27"/>
<circle class="st1" cx="889.4" cy="160.5" r="9"/>
<path class="st3" d="M968.4,103.5c1.2-29.2-24-54-56.3-55.3s-59.4,21.3-60.6,50.6s21.3,35.9,53.5,37.2S967.2,132.8,968.4,103.5z"/>
<ellipse transform="matrix(0.2234 -0.9747 0.9747 0.2234 476.2407 948.0091)" class="st1" cx="833.1" cy="175.1" rx="12.4" ry="39.5"/>
<ellipse transform="matrix(0.2234 -0.9747 0.9747 0.2234 571.5814 1119.2665)" class="st1" cx="988.2" cy="200.9" rx="12.4" ry="39.5"/>
<path class="st4" d="M927.7,220.6c1.8,9.8-4.7,19.1-14.5,20.9c-9.8,1.8-19.1-4.7-20.9-14.5s5.8-13.2,15.6-15S926,210.8,927.7,220.6z
	"/>
<line class="st2" x1="712.6" y1="99" x2="803.6" y2="169"/>
<circle class="st3" cx="669.6" cy="68" r="68"/>
<circle class="st3" cx="533.1" cy="241.4" r="12.2"/>
<rect x="520.5" y="496.8" class="st3" width="36" height="40.2"/>
<rect x="534" y="503.5" class="st0" width="36" height="40.2"/>
<rect x="60.3" y="83.8" class="st3" width="77.8" height="36"/>
<rect x="90.3" y="100.4" class="st0" width="77.8" height="36"/>
<circle class="st0" cx="232.1" cy="213.9" r="12.9"/>
</svg>
