<?xml version="1.0" encoding="utf-8"?>
<!-- Generator: Adobe Illustrator 22.1.0, SVG Export Plug-In . SVG Version: 6.00 Build 0)  -->
<svg version="1.1" id="e87ddc62-7528-42a5-8b37-f74ed0351019"
	 xmlns="http://www.w3.org/2000/svg" xmlns:xlink="http://www.w3.org/1999/xlink" x="0px" y="0px" viewBox="0 0 769 608.2"
	 style="enable-background:new 0 0 769 608.2;" xml:space="preserve">
<style type="text/css">
	.st0{fill:#F2F2F2;}
	.st1{fill:#47465A;}
	.st2{opacity:0.1;enable-background:new    ;}
	.st3{fill:#7A799C;}
	.st4{fill:#9493B6;}
	.st5{fill:#8D99AE;}
	.st6{fill:#B9314F;}
</style>
<title>software engineer</title>
<ellipse class="st0" cx="389.5" cy="505.4" rx="379.5" ry="102.8"/>
<polygon class="st1" points="533,187.6 490.1,402.6 480.8,402.6 479.8,401 476.8,396.4 514,195.6 519.6,193.2 "/>
<polygon class="st2" points="519.6,193.2 479.8,401 476.8,396.4 514,195.6 "/>
<polygon class="st1" points="597.6,480.4 586.5,484 583.9,484.9 580.3,476.9 519.6,200 525.9,198.5 539.2,195.6 "/>
<polygon class="st2" points="586.5,484 583.9,484.9 580.3,476.9 519.6,200 525.9,198.5 "/>
<polygon class="st1" points="71.6,187.6 61.9,466.3 50.8,468.8 50,468.9 46.9,463.2 53.1,190.3 59,189.4 "/>
<polygon class="st2" points="59,189.4 50.8,468.8 50,468.9 46.9,463.2 53.1,190.3 "/>
<polygon class="st1" points="129.6,564.9 118,566.9 116.8,567.1 113.2,559.6 57,195.6 58.7,195.1 67.2,192.5 "/>
<polygon class="st2" points="118,566.9 116.8,567.1 113.2,559.6 57,195.6 58.7,195.1 "/>
<path class="st3" d="M373.7,165.1l43,54.9c3,3.8,7.8,5.8,12.6,5.2l176.3-20.6c7-0.8,12.3-6.8,12.3-13.8V150L373.7,165.1z"/>
<path class="st1" d="M518.4,173.9h11.9l0,0v17.2c0,2.5-2,4.4-4.4,4.4l0,0h-3.1c-2.5,0-4.4-2-4.4-4.4l0,0L518.4,173.9L518.4,173.9z"
	/>
<path class="st3" d="M57,200l43,54.9c3,3.8,7.8,5.8,12.6,5.2l176.3-20.6c7-0.8,12.3-6.8,12.3-13.8V185L57,200z"/>
<path class="st1" d="M201.7,208.8h11.9l0,0v17.2c0,2.5-2,4.4-4.4,4.4l0,0h-3.1c-2.5,0-4.4-2-4.4-4.4l0,0V208.8L201.7,208.8z"/>
<path class="st1" d="M106.4,227.8l524.5-61.1c4.2-0.5,7.3-4.3,6.8-8.6c-0.3-2.6-1.9-4.8-4.2-6L539.6,105
	c-18.5-9.3-39.2-13.1-59.8-11L13.9,141.5c-4.9,0.5-8.5,4.9-7.9,9.8c0.2,2,1.1,3.9,2.5,5.3l54.3,55.7
	C74,223.9,90.2,229.6,106.4,227.8z"/>
<path class="st1" d="M688.5,158.4l-5.6-3.1c0,0-6.1,4.5-11,23.2s9.2,0.2,9.2,0.2l6.2-12.8L688.5,158.4z"/>
<path class="st1" d="M628.5,330.5c0,0-5.8,27-8.4,34.5c-1.3,3.7-7.6,7-14.5,9.6c-6.2,2.3-12.6,4-19.1,5
	c-7.5,0.9-103.9-14.2-150.8-24.3c-31.6-6.9-35.7-14.7-35-19.1c0.2-1.3,0.9-2.5,1.8-3.5c0,0,46.4-31.4,62.8-46.4s48.7-3.1,84,3.1
	S628.5,330.5,628.5,330.5z"/>
<path class="st1" d="M682.9,155.3c0,0,21.7,14.2-51.3,43.3c0,0-39.7,22.4-34.5,114.5c0.2,4.1,1.5,8.2,3.7,11.7
	c7.5,12.4,23.7,43.7-3.2,47.6v7.1c0,0,48.7-24.3,54-45.1s23-136.2,31.8-146.9S698,160.2,682.9,155.3z"/>
<path class="st2" d="M605.6,374.6c-6.2,2.3-12.6,4-19.1,5c-7.5,0.9-103.9-14.2-150.8-24.3c-31.6-6.9-35.7-14.7-35-19.1
	c20.8,7.1,88.2,29.6,112.4,31.5c28.8,2.2,83.7,8.4,87.8,4.2C602.5,370.2,604.2,371.9,605.6,374.6z"/>
<path class="st1" d="M353,558.7l42-192c0,0,7.5-20.3,24.8-19.5l15.9,8c0,0-26.5-6.2-32.3,14.2s-42.5,189.3-42.5,189.3H353z"/>
<polygon class="st1" points="453.8,471.1 470.6,353.9 478.1,353.9 460.9,471.1 "/>
<path class="st1" d="M614.8,585.7l-15.9-183.1c0,0,0-15.5,8-23s33.7-29,33.7-29s6.6-1.6,11.9,13.5s42,165.4,42,165.4l-7.1,3.1
	l-45.6-173.4l-31.4,29.6c0,0-6.2,11.1-3.1,21.2s14.6,175.6,14.6,175.6H614.8z"/>
<polygon class="st1" points="565.7,375.2 605.5,386.7 614.4,378.3 591.4,375.2 "/>
<path class="st3" d="M211.8,52.3l6.5,96.8l141.1-13.7l-5.6-94.6c-0.3-5.2-4.8-9.3-10.1-8.9c-0.1,0-0.2,0-0.2,0L220.5,42.2
	C215.3,42.6,211.5,47.1,211.8,52.3z"/>
<polygon class="st3" points="406.7,163.3 266,178.6 260.7,179.2 219.6,152.7 219.6,146.9 359.4,134.3 "/>
<polygon class="st2" points="266,178.6 260.7,179.2 219.6,152.7 219.6,147.5 "/>
<polygon class="st4" points="221.4,51.4 226.2,137.6 350.1,126.1 345.7,42.1 "/>
<polygon class="st2" points="295.2,161.5 310.3,171.7 355.8,167.3 340.3,157.5 "/>
<polygon class="st4" points="233.7,149.1 252.8,163.3 374.4,151.8 352.7,137.6 "/>
<circle class="st5" cx="479.9" cy="202.7" r="129.9"/>
<ellipse transform="matrix(0.2234 -0.9747 0.9747 0.2234 56.9744 461.6722)" class="st5" cx="318.2" cy="195.1" rx="22.3" ry="70.9"/>
<ellipse transform="matrix(0.2234 -0.9747 0.9747 0.2234 136.6986 486.6383)" class="st5" cx="373.7" cy="157.5" rx="12.4" ry="39.5"/>
<path class="st6" d="M470.3,54.2c17.9-40.9,69-58.1,114.2-38.4c45.2,19.7,67.3,68.9,49.4,109.9c-17.9,40.9-53.1,35.1-98.3,15.4
	S452.4,95.1,470.3,54.2z"/>
<rect x="362.2" y="302.9" transform="matrix(0.7244 -0.6893 0.6893 0.7244 -112.6343 361.2223)" class="st5" width="66.5" height="37.1"/>
<ellipse transform="matrix(0.2827 -0.9592 0.9592 0.2827 -70.7001 592.733)" class="st5" cx="360.9" cy="343.6" rx="11.6" ry="31"/>
</svg>
