<?xml version="1.0" encoding="utf-8"?>
<!-- Generator: Adobe Illustrator 22.1.0, SVG Export Plug-In . SVG Version: 6.00 Build 0)  -->
<svg version="1.1" id="Layer_1" xmlns="http://www.w3.org/2000/svg" xmlns:xlink="http://www.w3.org/1999/xlink" x="0px" y="0px"
	 viewBox="0 0 1440 406" style="enable-background:new 0 0 1440 406;" xml:space="preserve">
<style type="text/css">
	.st0{opacity:0.5455;fill:url(#fill_1_);enable-background:new    ;}
	.st1{opacity:0.5465;fill:none;stroke:#FFFFFF;stroke-width:2;enable-background:new    ;}
	.st2{fill:#8D99AE;}
	.st3{fill:#B9314F;}
	.st4{fill:#FFFFFF;}
	.st5{fill:none;stroke:#3F3D56;stroke-width:2;stroke-miterlimit:10;}
</style>
<title>waves</title>
<desc>Created with Sketch.</desc>
<g id="Page-1">
	<g id="Desktop-HD-Copy" transform="translate(0.000000, -663.000000)">
		
			<g id="lines" transform="translate(719.000000, 866.500000) scale(-1, 1) translate(-719.000000, -866.500000) translate(-2.000000, 664.000000)">
			
				<linearGradient id="fill_1_" gradientUnits="userSpaceOnUse" x1="1231.3557" y1="587.8297" x2="1231.3557" y2="585.6833" gradientTransform="matrix(-1442 0 0 -405 1776336 237555)">
				<stop  offset="0" style="stop-color:#B9314F"/>
				<stop  offset="1" style="stop-color:#FFFFFF"/>
			</linearGradient>
			<path id="fill" class="st0" d="M0,142c15.3,0,15.3-42.6,30.7-42.6S46,48.9,61.4,48.9S76.7,83.2,92,83.2s15.3-72.4,30.7-72.4
				s23.4,15.8,38.8,15.8s10.3,42.6,25.6,42.6s12.3,97.3,27.7,97.3S230.1,49,245.4,49s15.3,85.1,30.7,85.1s15.3-56.7,30.7-56.7
				s6.4,29.2,21.7,29.2c15.6,0,16.6-90.7,35.5-90.7c15.3,0,13.5,19,28.8,19s21.4,42.4,36.7,42.4s15.3,59.9,30.7,59.9
				s12.1-53,27.4-53s15.3-57.8,30.7-57.8c15.3,0,15.3,17.7,30.7,17.7c15.3,0,11.7,45.7,27,45.7c15.3,0,22.3,27.6,37.6,27.6
				c15.3,0,10.3,2.4,25.7,2.4c15.3,0,15.3-2.5,30.7-2.5c15.3,0,15.3,89.5,30.7,89.5c15.3,0,15.3-42.3,30.7-42.3
				c15.3,0,15.3,61.2,30.7,61.2c15.3,0,15.3-11.6,30.7-11.6c15.3,0,15.3-61.7,30.7-61.7c15.3,0,20.4-33.8,35.7-33.8
				c15.3,0,15.3-41.2,30.7-41.2c15.3,0,15.3-48.8,30.7-48.8c15.3,0,15.3,20.5,30.7,20.5s15.3-47.3,30.7-47.3
				c15.3,0,15.3,75.8,30.7,75.8s15.3-51.6,30.7-51.6S1058.5,0,1073.8,0c15.3,0,15.3,8.3,30.7,8.3s9.8,14.4,25.1,14.4
				c15.3,0,15.3-11.2,30.7-11.2s15.3,31.1,30.7,31.1s20.9-40.9,36.2-40.9c15.5,0,8.3,93.4,32.4,93.4c15.3,0,14-39.7,29.4-39.7
				c15.3,0,16.7,16.3,32,16.3s9.7-46.5,25-46.5c34.8,0,1.7,42.4,35,42.4c15.3,0,9.7-23.8,25-23.8c37.3,0-4.9,101.2,34,101.2l2,254.5
				c0,3.1-2.5,5.5-5.5,5.5H5.5c-3.1,0-5.5-2.5-5.5-5.5V142z"/>
			<path id="line" class="st1" d="M0,144c15.3,0,15.3-46,30.7-46S46,49,61.4,49S76.7,83.4,92,83.4s15.3-72.6,30.7-72.6
				s23.4,15.7,38.8,15.7s10.3,42.8,25.6,42.8s12.3,97.1,27.7,97.1s15.3-120.3,30.7-120.3s15.3,87.9,30.7,87.9s15.3-56.6,30.7-56.6
				s6.4,29.3,21.7,29.3c15.6,0,16.6-90.9,35.5-90.9c15.3,0,13.5,19.1,28.8,19.1s21.4,42.5,36.7,42.5s15.3,60,30.7,60
				s12.1-53.2,27.4-53.2s15.3-57.9,30.7-57.9c15.3,0,15.3,17.7,30.7,17.7c15.3,0,11.7,45.8,27,45.8c15.3,0,22.3,27.7,37.6,27.7
				c15.3,0,10.3,2.4,25.7,2.4c15.3,0,15.3-2.5,30.7-2.5c15.3,0,15.3,88.7,30.7,88.7c15.3,0,15.3-41.8,30.7-41.8
				c15.3,0,15.3,61.7,30.7,61.7c15.3,0,15.3-11.7,30.7-11.7c15.3,0,15.3-61.8,30.7-61.8c15.3,0,20.4-33.9,35.7-33.9
				c15.3,0,15.3-41.3,30.7-41.3c15.3,0,15.3-48.9,30.7-48.9c15.3,0,15.3,20.4,30.7,20.4s15.3-47.3,30.7-47.3
				c15.3,0,15.3,75.8,30.7,75.8s15.3-52.8,30.7-52.8S1058.5,0,1073.8,0c15.3,0,15.3,8.3,30.7,8.3s9.8,14.4,25.1,14.4
				c15.3,0,15.3-11.2,30.7-11.2s15.3,31.2,30.7,31.2s20.9-40.9,36.2-40.9c15.5,0,8.3,93.5,32.4,93.5c15.3,0,14-39.8,29.4-39.8
				c15.3,0,16.7,16.5,32,16.5s9.7-46.2,25-46.2c34.8,0,1.7,41.6,35,41.6c15.3,0,9.7-23.5,25-23.5c37.3,0-4.9,101.1,34,101.1"/>
		</g>
	</g>
</g>
<ellipse transform="matrix(5.221115e-02 -0.9986 0.9986 5.221115e-02 309.0156 512.3328)" class="st2" cx="424.4" cy="93.4" rx="15" ry="4.7"/>
<circle class="st3" cx="426.1" cy="79" r="5.2"/>
<ellipse transform="matrix(0.9515 -0.3077 0.3077 0.9515 -18.3045 130.636)" class="st2" cx="405" cy="123.4" rx="29.9" ry="29.9"/>
<rect x="401" y="150.2" transform="matrix(0.9582 -0.2861 0.2861 0.9582 -28.1221 122.7901)" class="st2" width="10.3" height="14.9"/>
<rect x="418.7" y="145.2" transform="matrix(0.9582 -0.2861 0.2861 0.9582 -26.1679 127.4867)" class="st2" width="9.1" height="16.3"/>
<ellipse transform="matrix(0.9582 -0.2861 0.2861 0.9582 -30.1996 124.53)" class="st2" cx="411.1" cy="165.6" rx="7.6" ry="2.8"/>
<ellipse transform="matrix(0.9582 -0.2861 0.2861 0.9582 -27.8841 129.2507)" class="st2" cx="428.4" cy="160.1" rx="7.6" ry="2.8"/>
<circle class="st4" cx="403.4" cy="115.9" r="10.2"/>
<circle class="st2" cx="403.4" cy="115.9" r="3.4"/>
<path class="st3" d="M368.9,105.8c-5.6-9.6-1.6-22.3,8.9-28.6c10.5-6.2,23.7-3.5,29.3,6.1c5.6,9.6-0.7,15.8-11.2,22
	C385.2,111.5,374.5,115.4,368.9,105.8z"/>
<ellipse transform="matrix(0.1297 -0.9916 0.9916 0.1297 201.3667 470.4975)" class="st2" cx="368.7" cy="120.5" rx="4.7" ry="15"/>
<path class="st4" d="M394.4,138.1c0.9,2.8,9.9,6,17.8,3.4c8-2.6,12.9-12.8,12-15.6c-0.9-2.8-7.3,3-15.3,5.5
	C401,134,393.5,135.4,394.4,138.1z"/>
<circle class="st2" cx="1310" cy="210.2" r="30.4"/>
<rect x="1320.1" y="232" transform="matrix(0.984 -0.1781 0.1781 0.984 -21.6093 239.7823)" class="st2" width="9.2" height="16.6"/>
<rect x="1301.9" y="235.2" transform="matrix(0.984 -0.1781 0.1781 0.984 -22.4835 236.5948)" class="st2" width="9.2" height="16.6"/>
<ellipse transform="matrix(0.7631 -0.6463 0.6463 0.7631 145.5211 904.4698)" class="st2" cx="1306.5" cy="253.7" rx="7.7" ry="2.9"/>
<ellipse transform="matrix(0.7631 -0.6463 0.6463 0.7631 151.8488 915.236)" class="st2" cx="1324.3" cy="250.5" rx="7.7" ry="2.9"/>
<circle class="st4" cx="1307.8" cy="202.8" r="10.4"/>
<circle class="st2" cx="1303.5" cy="199.1" r="3.5"/>
<path class="st3" d="M1334,177.1c0.5-11.3-9.2-20.8-21.7-21.3c-12.4-0.5-22.9,8.2-23.4,19.5c-0.5,11.3,8.2,13.8,20.6,14.3
	C1321.9,190.1,1333.5,188.4,1334,177.1z"/>
<ellipse transform="matrix(0.2234 -0.9747 0.9747 0.2234 795.9376 1408.3835)" class="st2" cx="1281.8" cy="204.7" rx="4.8" ry="15.2"/>
<ellipse transform="matrix(0.2234 -0.9747 0.9747 0.2234 832.6865 1474.3699)" class="st2" cx="1341.6" cy="214.6" rx="4.8" ry="15.2"/>
<path class="st4" d="M1318.3,222.2c0.7,3.8-1.8,7.4-5.6,8.1c-3.8,0.7-7.4-1.8-8.1-5.6c-0.7-3.8,2.2-5.1,6-5.8
	C1314.4,218.2,1317.6,218.4,1318.3,222.2z"/>
<line class="st5" x1="1235.4" y1="175.3" x2="1270.5" y2="202.3"/>
<circle class="st3" cx="1226" cy="169.7" r="13.6"/>
</svg>
